# xmcd CD database file
#
# Track frame offsets:
#	150
#	21121
#	42091
#
# Disc length: 967 seconds
#
# Revision: 0
# Processed by: cddbd v1.5PL3 Copyright (c) Steve Scherf et al.
# Submitted via: CDex 1.51
#
DISCID=1903c503
DTITLE=bird - チャンス
DYEAR=2003
DGENRE=JPop
TTITLE0=チャンス
TTITLE1=チャンス (Instrumental)
TTITLE2=Zero [Live At Blue Note Tokyo 2002.2.10]
EXTD=YEAR: 2003
EXTT0=
EXTT1=
EXTT2=
PLAYORDER=
